<svg width="391" height="66" viewBox="0 0 391 66" fill="none" xmlns="http://www.w3.org/2000/svg">
<path d="M9.92351 66H0.33551V0.199996H9.92351V66ZM76.889 66L30.453 16.274V66H27.915V0.199996L74.257 50.02V0.199996H76.889V66Z" fill="black" fill-opacity="0.85"/>
<path d="M92.0553 13.36C93.4653 6.31 101.643 0.199996 114.803 0.199996C123.357 0.199996 129.843 2.174 136.141 5.93399L134.919 8.002C130.501 5.46399 123.639 2.55 115.273 2.55C109.915 2.55 102.771 4.148 100.703 9.882C99.1993 14.018 101.361 19 108.599 21.82L125.425 28.212C139.995 33.758 143.943 44.474 140.089 53.028C137.081 60.172 128.527 66 116.025 66C105.967 66 96.3793 61.394 91.5853 54.814L93.3713 53.31C98.4473 59.42 106.625 63.556 116.025 63.556C124.673 63.556 130.313 59.42 132.193 54.532C134.637 48.422 131.629 40.808 121.947 37.142L104.745 30.656C94.5933 26.708 90.9273 19.564 92.0553 13.36Z" fill="#DDDDDD"/>
<path d="M152.675 33.194C152.675 14.958 167.339 0.199996 185.575 0.199996C196.197 0.199996 204.657 4.43 211.425 12.232L203.529 19.188C197.231 12.138 186.703 6.498 177.209 6.498C172.321 6.498 167.809 8.002 164.143 11.668C155.025 20.692 157.281 37.8 169.219 49.456C175.423 55.754 183.977 59.42 192.155 59.42C198.265 59.42 204.375 57.258 208.793 52.652L210.767 54.062C204.751 61.394 195.727 66 185.575 66C167.339 66 152.675 51.336 152.675 33.194Z" fill="#CCCCCC"/>
<path d="M264.416 66L243.36 15.71L222.398 66H219.672L246.932 0.199996L275.038 66H264.416Z" fill="#ABABAB"/>
<path d="M287.403 0.199996H314.757C325.191 0.199996 333.933 8.754 333.933 19.282C333.933 29.904 325.191 38.458 314.757 38.458H296.991V66H287.403V0.199996ZM307.613 2.832H296.991V35.732H307.613C316.637 35.732 324.157 28.4 324.157 19.282C324.157 10.352 316.637 2.832 307.613 2.832Z" fill="#E3E3E3"/>
<path d="M347.845 66V0.199996H390.991V2.832H357.433V27.836H386.761V30.468H357.433V63.462H390.991V66H347.845Z" fill="#ACACAC"/>
</svg>
