<svg width="504" height="66" viewBox="0 0 504 66" fill="none" xmlns="http://www.w3.org/2000/svg">
<path d="M10.0235 66H0.435501V0.199996H10.0235V66ZM95.789 66L49.353 16.274V66H46.815V0.199996L93.157 50.02V0.199996H95.789V66ZM129.755 13.36C131.165 6.31 139.343 0.199996 152.503 0.199996C161.057 0.199996 167.543 2.174 173.841 5.93399L172.619 8.002C168.201 5.46399 161.339 2.55 152.973 2.55C147.615 2.55 140.471 4.148 138.403 9.882C136.899 14.018 139.061 19 146.299 21.82L163.125 28.212C177.695 33.758 181.643 44.474 177.789 53.028C174.781 60.172 166.227 66 153.725 66C143.667 66 134.079 61.394 129.285 54.814L131.071 53.31C136.147 59.42 144.325 63.556 153.725 63.556C162.373 63.556 168.013 59.42 169.893 54.532C172.337 48.422 169.329 40.808 159.647 37.142L142.445 30.656C132.293 26.708 128.627 19.564 129.755 13.36ZM209.175 33.194C209.175 14.958 223.839 0.199996 242.075 0.199996C252.697 0.199996 261.157 4.43 267.925 12.232L260.029 19.188C253.731 12.138 243.203 6.498 233.709 6.498C228.821 6.498 224.309 8.002 220.643 11.668C211.525 20.692 213.781 37.8 225.719 49.456C231.923 55.754 240.477 59.42 248.655 59.42C254.765 59.42 260.875 57.258 265.293 52.652L267.267 54.062C261.251 61.394 252.227 66 242.075 66C223.839 66 209.175 51.336 209.175 33.194ZM339.716 66L318.66 15.71L297.698 66H294.972L322.232 0.199996L350.338 66H339.716ZM381.503 0.199996H408.857C419.291 0.199996 428.033 8.754 428.033 19.282C428.033 29.904 419.291 38.458 408.857 38.458H391.091V66H381.503V0.199996ZM401.713 2.832H391.091V35.732H401.713C410.737 35.732 418.257 28.4 418.257 19.282C418.257 10.352 410.737 2.832 401.713 2.832ZM460.745 66V0.199996H503.891V2.832H470.333V27.836H499.661V30.468H470.333V63.462H503.891V66H460.745Z" fill="#1F1F1F"/>
</svg>
